<?xml version="1.0" encoding="UTF-8"?>
<svg id="_Слой_2" data-name="Слой 2" xmlns="http://www.w3.org/2000/svg" viewBox="0 0 200 200">
  <defs>
    <style>
      .cls-1 {
        fill: #fff;
      }

      .cls-2 {
        fill: #01d0fb;
      }

      .cls-2, .cls-3 {
        stroke: #b6ff5c;
        stroke-miterlimit: 10;
        stroke-width: 4.3px;
      }

      .cls-4 {
        fill: #fe73c5;
      }

      .cls-5 {
        fill: #bd80e1;
      }

      .cls-6 {
        fill: none;
        opacity: .47;
      }

      .cls-7 {
        fill: #ffd15b;
        opacity: .53;
      }

      .cls-3 {
        fill: #fff0ad;
      }
    </style>
  </defs>
  <g id="_Слой_1-2" data-name="Слой 1">
    <g>
      <g>
        <circle class="cls-6" cx="100" cy="100" r="100"/>
        <g>
          <path class="cls-2" d="M145.21,98.65c0-26.13-21.18-47.52-47.31-47.31-26.35,.21-47.51,21.37-47.31,47.31,.2,26.13,21.18,47.31,47.31,47.31s47.31-21.18,47.31-47.31Z"/>
          <circle class="cls-3" cx="97.9" cy="98.65" r="30.81"/>
          <path class="cls-7" d="M126.89,99.3c0-7.03-2.55-13.46-6.76-18.43-18.52,.43-33.41,15.75-33.41,34.59,0,3.67,.57,7.21,1.62,10.54,3.12,1.17,6.5,1.82,10.03,1.82,15.75,0,28.52-12.77,28.52-28.52Z"/>
          <g>
            <circle class="cls-4" cx="97.9" cy="77.04" r="2.69"/>
            <circle class="cls-4" cx="82.62" cy="83.37" r="2.69"/>
            <circle class="cls-4" cx="76.29" cy="98.65" r="2.69"/>
            <circle class="cls-4" cx="82.62" cy="113.93" r="2.69"/>
            <circle class="cls-4" cx="97.9" cy="120.26" r="2.69"/>
            <circle class="cls-4" cx="113.18" cy="113.93" r="2.69"/>
            <circle class="cls-4" cx="119.51" cy="98.65" r="2.69"/>
          </g>
          <path class="cls-5" d="M116.68,83.22h0c-.79-.79-2.08-.79-2.87,0l-16.08,16.08c-.79,.79-2.08,.79-2.87,0l-6.09-6.09c-.79-.79-2.08-.79-2.87,0h0c-.79,.79-.79,2.08,0,2.87l8.48,8.48c1.05,1.05,2.77,1.06,3.82,0l18.47-18.46c.79-.79,.79-2.08,0-2.87Z"/>
        </g>
        <g>
          <path class="cls-1" d="M23.53,146.61c-1.79-2.2-3.09-4.69-3.88-7.41l-2.11-7.3,7.54,.96c.35,.04,.69,.08,1.03,.11,2.93-3.84,6.12-7.35,9.48-10.45l3.95-3.64,3.35,4.2c1.69,2.13,2.95,4.53,3.73,7.13l.51,1.71,.98,1.19c1.71,2.08,2.96,4.45,3.69,7.06l1.49,5.27-5.38,1.01c-6.67,1.25-13.55,1.93-20.45,2.01l-2.42,.03-1.52-1.88Z"/>
          <path class="cls-1" d="M46.87,170.04c-.33,0-.68-.03-1.18-.1-1.65-.16-3.28-.63-4.85-1.39-.87-.42-1.63-.97-2.28-1.65l-.14-.15-.8-.98-.2-.35c-.3-.52-.53-1.07-.68-1.64-1.4-.53-2.54-1.61-3.65-2.78l-.09-.1-1.16-1.35c-3.5-4.29-1.08-7.21-.26-8l13.07-12.55c.97-.93,2.24-1.44,3.59-1.44,2.4,0,4.06,1.52,5.68,3.21,1.27,1.32,2.07,2.51,2.53,3.58,1.39,.62,2.42,1.68,3.06,2.36,1.76,1.84,5.05,5.26,2.93,9.06l-.39,.69-.58,.54c-.57,.53-1.27,.93-2.02,1.17l-.19,.05-6.3,1.67-1.37,7.59-2.59,2.54h-2.12Z"/>
          <path class="cls-1" d="M54.5,177.55c-.95,0-1.88-.23-2.95-.73-.81-.38-1.49-.73-2.07-1.1-5.72-3.54-4.3-7.21-3.43-8.63l9.2-14.88c1.13-1.82,2.94-2.87,4.96-2.87,1.08,0,2.15,.31,3.11,.9l4.05,2.5c3.37,2.08,5.46,4.56,6.23,7.36,.55,2.02,.73,5.22-1.58,8.95-1.5,2.43-3.66,4.18-6.43,5.21-1.09,.41-2.26,.61-3.49,.61-.69,0-1.4-.06-2.13-.19-.22-.04-.44-.08-.66-.13l-.32,.51c-.96,1.55-2.64,2.48-4.5,2.48Z"/>
          <path class="cls-1" d="M78.02,188.06c-1.36,0-2.77-.21-4.18-.62-3.72-1.09-6.58-3.37-8.27-6.6-1.68-3.21-1.89-7.03-.63-11.35,1.27-4.34,3.52-7.44,6.7-9.22,1.97-1.1,4.11-1.66,6.36-1.66,1.35,0,2.75,.21,4.15,.62,3.73,1.09,6.58,3.34,8.26,6.51,1.68,3.17,1.87,7.01,.59,11.43-1.3,4.45-3.57,7.58-6.76,9.31-1.93,1.05-4.03,1.59-6.23,1.59Z"/>
          <path class="cls-1" d="M96.39,190.69c-6.67-.11-7.61-3.6-7.58-5.67l.15-8.86c-1.71-.63-3.34-2.23-3.74-5.25-.08-.69-.11-1.33-.1-1.96,.01-.65,.07-1.28,.16-1.89,.88-5.21,4.82-5.47,5.6-5.47l11.83,.2c.48,0,4.77,.23,5.5,5.58,.08,.7,.12,1.33,.1,1.97-.01,.63-.06,1.26-.16,1.88-.57,3.36-2.41,4.66-3.85,5.16l-.15,8.89c-.03,1.62-.79,5.41-7.28,5.41h-.48Z"/>
          <path class="cls-1" d="M99.19,164.74l3.4-1.84c2.45-1.33,5.09-2,7.86-2h1.07s.96-.48,.96-.48c2.51-1.28,5.21-1.95,8.03-1.99l3.96-.05,6.29,25.39-3.5,1.81c-2.48,1.29-5.14,1.95-7.92,1.96h-.96s-.87,.46-.87,.46c-2.55,1.32-5.28,2-8.13,2.01l-3.93,.02-6.27-25.29Z"/>
          <path class="cls-1" d="M134.42,181.68c-1.95,0-3.74-1.04-4.67-2.71l-4.28-7.75c-.29,.05-.59,.08-.89,.08-1.89,0-3.56-.93-4.97-2.77-.42-.56-.76-1.1-1.07-1.65-.3-.55-.58-1.13-.8-1.71-1.45-3.91,.29-6.52,2.21-7.58l10.28-5.68c.79-.44,1.68-.66,2.58-.66,1.89,0,3.56,.93,4.97,2.77,.41,.55,.76,1.09,1.07,1.65,.31,.56,.58,1.14,.8,1.72,1.06,2.86,.41,5.02-.76,6.39l4.3,7.78c1,1.81,1.81,5.33-4.04,8.56-2.04,1.13-3.37,1.57-4.73,1.57Z"/>
          <path class="cls-1" d="M147.31,173.67c-1.65,0-3.18-.7-4.32-1.97l-11.54-12.97c-1.23-1.39-1.5-2.83-1.5-3.81,0-1.6,.67-3.09,1.91-4.19l7.22-6.42c.97-.86,2.21-1.33,3.51-1.33,2.43,0,4.11,1.51,5.56,3.15,.81,.91,1.36,1.67,1.75,2.38,.53,.99,.76,1.97,.76,2.88,.42,.38,.75,.75,.98,1.01,.32,.36,.63,.75,.94,1.21,1.89,.18,3.22,1.29,3.72,1.71,.45,.38,.89,.8,1.31,1.27,.45,.51,.91,1.14,1.4,1.93,1.98,3.21,.85,5.99-.72,7.39l-6.91,6.14c-1.51,1.34-3.04,1.62-4.07,1.62Z"/>
          <path class="cls-1" d="M156.7,161.13c-2.42-1.53-4.1-3.52-4.98-5.91l-1.32-3.59h0s-9.79-8.12-9.79-8.12l12.47-18.86,22.83,15.09-1.32,3.69c-.93,2.6-2.44,4.88-4.48,6.78l-1.87,1.73c-.18,1.5-.75,3.26-2.01,5.17-1.13,1.7-2.58,3.09-4.34,4.11l-2.62,1.54-2.57-1.62Z"/>
          <path class="cls-1" d="M149.85,133.84l.19-3.89c.14-2.81,.94-5.46,2.39-7.87l2.01-3.34,4.26,1.3c1.31-2.65,3.28-4.02,4.84-4.72,1.36-.6,2.8-.89,4.33-.89,1.33,0,2.74,.23,4.2,.67,3.13,.95,5.47,2.59,6.94,4.87,1.14,1.83,2.19,4.74,1,8.65l-4.01,13.18-26.15-7.96Z"/>
          <path class="cls-4" d="M47,141.53c-6.42,1.2-12.95,1.84-19.59,1.92-1.37-1.68-2.35-3.57-2.95-5.65,2,.25,3.91,.33,5.73,.23h.02c-.24-.6-.42-1.09-.53-1.5,2.88-3.84,5.99-7.29,9.31-10.35,1.3,1.63,2.25,3.45,2.85,5.46-2.33,1.91-4.51,3.95-6.54,6.13v.02c3.33-.41,6.32-.92,8.97-1.51,1.28,1.55,2.19,3.29,2.74,5.24Z"/>
          <path class="cls-4" d="M38.74,159.1c-.19,.19-.88-.33-2.05-1.55l-.99-1.15c-.57-.7-.79-1.11-.66-1.24l13.07-12.55c.22-.21,.95,.33,2.2,1.63,1.25,1.3,1.76,2.05,1.54,2.27l-4.98,4.79,7.27-2.41c.27-.08,.86,.35,1.77,1.3,1.66,1.73,2.38,2.78,2.17,3.16-.03,.02-.06,.04-.1,.05l-9.37,2.49-1.65,9.15s-.25,0-.69-.05c-1.09-.1-2.18-.41-3.25-.92-.33-.16-.61-.36-.85-.61l-.41-.5c-.3-.52-.34-1.1-.14-1.74l2.11-6.3-.3-.31-4.69,4.51Z"/>
          <path class="cls-4" d="M52.11,171.48c-1.39-.86-2-1.45-1.81-1.75l9.2-14.88c.32-.52,.72-.63,1.19-.34l4.04,2.5c2.27,1.4,3.61,2.88,4.04,4.43,.42,1.55,.09,3.22-1.01,5-.91,1.47-2.22,2.52-3.92,3.16-.85,.32-1.85,.38-3,.18-1.15-.2-2.33-.68-3.56-1.44l-2.54,4.11c-.11,.18-.48,.13-1.1-.15s-1.13-.56-1.54-.81Zm9.84-10.68l-2.24,3.63,.3,.18c.54,.33,1.09,.44,1.67,.33s1.05-.47,1.43-1.08c.38-.61,.52-1.13,.43-1.54-.09-.42-.46-.82-1.1-1.22l-.48-.3Z"/>
          <path class="cls-4" d="M75.24,182.64c-2.43-.71-4.17-2.08-5.24-4.12s-1.15-4.58-.26-7.63c.89-3.05,2.34-5.13,4.34-6.26,2-1.12,4.23-1.32,6.68-.61s4.19,2.06,5.25,4.05c1.05,1.99,1.12,4.55,.2,7.68-.92,3.14-2.37,5.24-4.35,6.32-1.98,1.08-4.19,1.27-6.62,.56Zm4-13.65c-.83-.24-1.64-.07-2.42,.53-.78,.6-1.38,1.58-1.78,2.95-.4,1.37-.44,2.51-.12,3.4,.32,.89,.92,1.46,1.79,1.72,.87,.25,1.69,.09,2.45-.49s1.34-1.57,1.75-2.95c.4-1.38,.43-2.53,.09-3.43-.34-.91-.93-1.48-1.76-1.72Z"/>
          <path class="cls-4" d="M99.16,185.2c0,.36-.9,.52-2.68,.49s-2.67-.22-2.66-.58l.23-13.55-3.24-.05c-.31,0-.52-.42-.63-1.25-.05-.4-.07-.8-.06-1.22,0-.41,.04-.82,.1-1.21,.14-.83,.36-1.24,.67-1.23l11.74,.2c.31,0,.51,.42,.63,1.25,.05,.4,.07,.8,.06,1.22,0,.41-.04,.82-.1,1.21-.14,.83-.36,1.24-.67,1.23l-3.16-.05-.23,13.55Z"/>
          <path class="cls-4" d="M124.96,181.15c-1.77,.92-3.65,1.39-5.63,1.4l-1.76-7.1c-.19-.77-.32-1.4-.38-1.88-.96,3.32-1.62,6.65-1.97,10-1.84,.96-3.79,1.44-5.84,1.45l-4.39-17.72c1.77-.96,3.64-1.42,5.63-1.4l1.76,7.1c.19,.77,.33,1.39,.41,1.87,.36-3.43,1.01-6.76,1.97-10,1.83-.93,3.77-1.42,5.82-1.44l4.39,17.72Z"/>
          <path class="cls-4" d="M138.81,173.97c.17,.32-.52,.9-2.08,1.77-1.56,.86-2.43,1.14-2.6,.82l-6.56-11.86-2.84,1.57c-.27,.15-.66-.11-1.17-.77-.24-.32-.46-.66-.66-1.02-.2-.36-.37-.73-.52-1.1-.29-.79-.3-1.25-.03-1.4l10.28-5.68c.27-.15,.66,.11,1.17,.77,.24,.32,.46,.66,.66,1.02s.37,.73,.52,1.1c.29,.79,.3,1.25,.03,1.4l-2.77,1.53,6.56,11.86Z"/>
          <path class="cls-4" d="M146.27,154.66c.26-.23,.8,.13,1.64,1.07,.25,.28,.52,.64,.8,1.08,.28,.44,.34,.73,.18,.87l-2.56,2.28,1.79,2.02,3.71-3.3c.23-.2,.65-.04,1.25,.47,.27,.22,.53,.47,.79,.76,.26,.29,.55,.7,.88,1.23,.33,.53,.39,.88,.21,1.04l-6.9,6.14c-.51,.46-.95,.47-1.32,.06l-11.54-12.97c-.31-.35-.31-.66,0-.94l7.22-6.42c.28-.25,.95,.22,2.01,1.41s1.45,1.91,1.16,2.16l-3.73,3.32,1.81,2.04,2.6-2.31Z"/>
          <path class="cls-4" d="M169.87,141.74c-.66,1.85-1.72,3.45-3.17,4.8l-11.29-7.46-1.13,1.71,5.9,4.93c1.73,1.43,2.74,2.82,3.03,4.17s-.1,2.84-1.16,4.45c-.7,1.07-1.6,1.92-2.69,2.56-1.48-.93-2.46-2.07-2.96-3.41,.28-.2,.55-.5,.81-.89,.52-.78,.27-1.59-.73-2.42l-9.24-7.66,7.24-10.95,15.38,10.17Z"/>
          <path class="cls-4" d="M162.76,123.36c.52-1.71,1.46-2.87,2.84-3.48,1.37-.6,3.04-.6,5.02,0,1.98,.6,3.38,1.54,4.2,2.8,.8,1.28,.94,2.77,.42,4.47l-2.55,8.4-17.64-5.37c.1-1.98,.66-3.83,1.68-5.53l5.17,1.57,.87-2.87Zm7.47,3.91c.26-.86-.19-1.47-1.36-1.83-1.17-.36-1.89-.1-2.15,.76l-.42,1.37,3.51,1.07,.42-1.37Z"/>
        </g>
      </g>
      <g>
        <path class="cls-1" d="M26.63,55.37l3-2.62c-.12-.19-.24-.39-.38-.58l-7.43-10.67,16.98-14.87,8.97,10.24,1.91-1.67,11.11,12.68-2.21,3.21c-1.51,2.2-3.49,3.92-5.86,5.14l-3.44,1.76-2.19,3.17c-1.52,2.2-3.49,3.93-5.87,5.14l-3.47,1.77-11.11-12.68Z"/>
        <path class="cls-1" d="M55.26,49.99c-2.13,0-4.02-1.15-5.06-3.07l-8.26-15.26c-1.55-2.86-.59-6.17,2.23-7.69l8.5-4.6c.77-.41,1.63-.63,2.5-.63,3.49,0,5.19,3.14,5.91,4.48,.58,1.06,.95,1.93,1.16,2.72,.3,1.13,.3,2.13,.09,3,.33,.48,.56,.9,.71,1.18,.23,.42,.43,.87,.64,1.38,1.2,.4,2.28,1.25,3.23,2.52,.36,.47,.69,.99,.98,1.54,.33,.61,.63,1.32,.92,2.2,1.2,3.6-.55,6.05-2.41,7.05l-8.11,4.39c-.98,.53-2,.8-3.02,.8Z"/>
        <path class="cls-1" d="M58.78,30.2l3.84-1.07c-.02-.22-.05-.46-.09-.69l-2.08-12.83,21.74-6.06,3.65,13.11,2.44-.68,4.52,16.24-3.38,1.93c-2.31,1.32-4.84,2.02-7.5,2.09l-3.88,.1-3.34,1.91c-2.32,1.32-4.84,2.03-7.51,2.09l-3.89,.1-4.52-16.24Z"/>
        <path class="cls-1" d="M92.06,38.19c-2.04,0-3.99-.45-5.81-1.34l-2.73-1.34-.07-3.04c-.06-2.86,.67-5.36,2.18-7.41l2.27-3.1,1.36-12.63,22.61-.02,.03,27.37-3.81,.94c-1.34,.33-2.71,.5-4.07,.5s-2.71-.16-4.04-.49l-2.48-.6c-1.35,.68-3.13,1.18-5.41,1.18h-.02Z"/>
        <path class="cls-1" d="M125.22,42.08c-.48,0-1.02-.05-1.71-.16-1.01-.16-1.77-.3-2.38-.46-2.64-.65-4.16-1.76-5.02-2.93-.85,.4-1.83,.62-2.88,.62-.84,0-1.78-.13-2.85-.4-1.27-.31-2.17-.63-2.92-1.01-3.79-1.96-3.33-5.11-3.1-6.03l.15-.62,9.22-16.98c.84-1.73,2.59-2.83,4.64-2.83,.78,0,1.75,.14,4.69,.86,1.3,.32,2.27,.58,2.96,.79,3.73,1.16,4.38,3.58,4.38,5.12l.16,19.51-.15,.6c-.47,1.95-2.26,3.91-5.19,3.91Z"/>
        <path class="cls-1" d="M140.77,50.23c-2.71-.66-5.15-1.92-7.25-3.73l-.73-.63-.95-.23c-2.78-.68-5.29-1.97-7.44-3.83l-2.97-2.57,11.92-23.17,3.77,.85c.13,.03,.26,.06,.38,.09l1.49-3.25,3.75,.6c1.85,.29,3.55,1.1,4.95,2.34,1.81,.42,3.46,1.33,4.78,2.66l2.73,2.72-1.82,3.12c.06,.05,3.19,2.71,3.19,2.71l-11.96,23.26-3.83-.93Z"/>
        <path class="cls-1" d="M155.16,61.02c-1.94,0-3.46-.96-5.45-2.62-1.26-1.05-2.44-2.12-3.09-3.49-1.31-.36-2.53-1.21-3.99-2.43-4.89-4.08-4.02-7.22-2.43-9.13l11.5-13.74c1-1.19,2.48-1.88,4.05-1.88,1.98,0,3.61,1.03,5.45,2.56,1.55,1.29,2.5,2.5,3.04,3.59,.98,.25,1.81,.73,2.47,1.16l.18,.12c.49,.35,.95,.71,1.39,1.07l.14,.12,1.17,1.06,.14,.14c3.78,4.02,1.4,7.3,.89,7.91l-11.45,13.69c-.97,1.17-2.43,1.85-3.99,1.85Z"/>
        <path class="cls-4" d="M54.45,48.24c-1.04,1.51-2.38,2.69-4.02,3.52l-1.94-2.21-7.48,6.55,1.94,2.21c-1.04,1.51-2.39,2.69-4.02,3.52l-5.25-5.99,1.81-1.58c-.24-1.59-.95-3.23-2.14-4.95l-4.87-7,9.85-8.63,8.96,10.24,1.91-1.67,5.25,5.99Zm-16.8-2.83c1.13,1.62,1.87,3.29,2.23,5.01l3.11-2.72-5.73-6.54-1.6,1.4,1.99,2.85Z"/>
        <path class="cls-4" d="M57.29,31.08c.3-.16,.75,.31,1.35,1.42,.18,.33,.36,.74,.53,1.23,.17,.49,.16,.79-.03,.89l-3.02,1.63,1.29,2.38,4.37-2.37c.27-.14,.64,.11,1.11,.75,.21,.28,.41,.58,.59,.92,.18,.34,.37,.81,.57,1.4,.2,.59,.18,.95-.04,1.06l-8.12,4.4c-.6,.32-1.04,.24-1.3-.25l-8.26-15.27c-.22-.41-.15-.72,.21-.91l8.5-4.6c.33-.18,.88,.43,1.64,1.83,.76,1.4,.97,2.19,.64,2.37l-4.39,2.38,1.3,2.4,3.06-1.66Z"/>
        <path class="cls-4" d="M86.95,35.81c-1.6,.91-3.31,1.39-5.15,1.44l-.79-2.84-9.57,2.67,.79,2.83c-1.6,.91-3.31,1.39-5.15,1.44l-2.14-7.67,2.32-.64c.47-1.53,.54-3.33,.21-5.38l-1.36-8.42,12.61-3.51,3.65,13.11,2.44-.68,2.14,7.67Zm-13.92-9.83c.32,1.95,.27,3.78-.16,5.48l3.98-1.11-2.33-8.38-2.06,.57,.56,3.43Z"/>
        <path class="cls-4" d="M106.89,32.74c-1.91,.47-3.82,.47-5.75,0v-13.53s-2.07,0-2.07,0l-.86,7.64c-.23,2.23-.83,3.84-1.8,4.84-.97,.99-2.42,1.49-4.34,1.49-1.28,0-2.48-.28-3.62-.83-.04-1.75,.37-3.2,1.21-4.35,.32,.13,.72,.19,1.19,.19,.94,0,1.48-.65,1.62-1.95l1.28-11.94h13.12s.02,18.43,.02,18.43Z"/>
        <path class="cls-4" d="M122.33,36.62c-1.52-.38-2.28-.82-2.28-1.34l-.03-3.59-4.17-1.03-1.56,3.06c-.24,.52-1.14,.58-2.72,.19-.84-.21-1.45-.41-1.83-.6-.38-.2-.56-.32-.55-.37l9.01-16.61c.03-.14,1.25,.09,3.64,.68s3.57,.96,3.54,1.1l.16,18.89c-.03,.12-.46,.12-1.28,0-.82-.13-1.47-.25-1.94-.37Zm-5.01-9.13l2.75,.68,.16-5.72-.16-.04-2.75,5.08Z"/>
        <path class="cls-4" d="M141.95,45.37c-1.94-.47-3.66-1.36-5.16-2.66l3.35-6.51c.36-.71,.68-1.26,.95-1.67-2.9,1.87-5.59,3.95-8.07,6.24-2.02-.49-3.8-1.41-5.35-2.76l8.35-16.23c1.96,.44,3.68,1.33,5.16,2.66l-3.35,6.51c-.36,.71-.67,1.27-.92,1.68,2.52-2.35,5.21-4.42,8.07-6.23,1.99,.5,3.77,1.41,5.33,2.74l-8.35,16.23Zm6.98-22.49c-1.2,2.05-2.92,2.51-5.16,1.36-2.21-1.14-2.82-2.79-1.83-4.95,1.03,.16,1.92,.62,2.67,1.37-.13,.5,.01,.86,.45,1.08,.46,.24,.86,.16,1.19-.24,1.04,.17,1.94,.63,2.69,1.38Z"/>
        <path class="cls-4" d="M155.31,55.96c-.2,.24-.99-.23-2.39-1.4-1.39-1.16-1.99-1.87-1.8-2.1l3.98-4.77-2.9-2.42-3.98,4.76c-.2,.23-.99-.23-2.39-1.4-1.4-1.17-1.99-1.87-1.8-2.1l11.49-13.73c.24-.29,1.06,.15,2.46,1.31s1.97,1.89,1.73,2.19l-4.07,4.87,2.9,2.42,4.04-4.82c.16-.19,.62-.04,1.38,.45,.38,.27,.75,.55,1.09,.84l1.02,.93c.62,.66,.85,1.09,.69,1.28l-11.45,13.69Z"/>
      </g>
    </g>
  </g>
</svg>